/* XPM */
static char * dark_south_xpm[] = {
"64 64 20 1",
" 	c #010202",
".	c #010101",
"+	c #0A0B0B",
"@	c #0E0E0E",
"#	c #0D0E0E",
"$	c #0D0E0D",
"%	c #0D0D0D",
"&	c #0C0D0D",
"*	c #0B0C0B",
"=	c #0C0D0C",
"-	c #0B0B0B",
";	c #020202",
">	c #040404",
",	c #020303",
"'	c #080908",
")	c #030303",
"!	c #050505",
"~	c #0C0C0C",
"{	c #070808",
"]	c #090A09",
"                                                                ",
"................................................................",
"                                                                ",
"+@@@@@@@@@@@@@@@@@#####$$$$%%&&++&&%%$$$$#####@@@@@@@@@@@@@@@@@+",
"+@@@@@@@@@@@@@@@@@@###$$$$$$%&&++&&%%$$$$####@@@@@@@@@@@@@@@@@@+",
"+@@@@@@@@@@@@@@@@@######$$$%%&&++&&%$$$$$####@@@@@@@@@@@@@@@@@@+",
"+@@@@@@@@@@@@@@@@@@####$$$$%%&&++&%%%$$$$####@@@@@@@@@@@@@@@@@@+",
"+@@@@@@@@@@@@@@@@@@####$$$$%%&&++&&%%$$$$####@@@@@@@@@@@@@@@@@@+",
"+@@@@@@@@@@@@@@@@@@###$$$$$$%%&++&%%$$$$$####@@@@@@@@@@@@@@@@@@+",
"+@@@@@@@@@@@@@@@@@@###$$$$$$%&&++&&%%$$$$$####@@@@@@@@@@@@@@@@@+",
"+@@@@@@@@@@@@@@@@@#####$$$$%%%&++&&%$$$$$#####@@@@@@@@@@@@@@@@@+",
"+@@@@@@@@@@@@@@@@@@####$$$$$%%&++&&%%$$$$####@@@@@@@@@@@@@@@@@@+",
"+@@@@@@@@@@@@@@@@@####$$$$$$%%&++&&%%$$$######@@@@@@@@@@@@@@@@@+",
"+@@@@@@@@@@@@@@@@@#####$$$$%%%&++&&%%$$$#$###@@@@@@@@@@@@@@@@@@+",
"+@@@@@@@@@@@@@@@@@####$$$$$$%&&++&&%%$$$$$####@@@@@@@@@@@@@@@@@+",
"+@@@@@@@@@@@@@@@@@@####$$$$%%%&++&&%$$$$$####@@@@@@@@@@@@@@@@@@+",
"+@@@@@@@@@@@@@@@@@@####$$$$$%&&++&&%%$$$$#####@@@@@@@@@@@@@@@@@+",
"+@@@@@@@@@@@@@@@@@@####$$$$%%&&++&&%$$$$$$####@@@@@@@@@@@@@@@@@+",
"+@@@@@@@@@@@@@@@@@@####$$$$%%&&++&&%%$$$$####@@@@@@@@@@@@@@@@@@+",
"+@@@@@@@@@@@@@@@@@#####$$$$%%&&++&%%$$$$$####@@@@@@@@@@@@@@@@@@+",
"+@@@@@@@@@@@@@@@@@@###$$$$$%%%&++&%%$$$$$####@@@@@@@@@@@@@@@@@@+",
"+@@@@@@@@@@@@@@@@@@####$$$$%%%&++&%%%$$$$#####@@@@@@@@@@@@@@@@@+",
"+@@@@@@@@@@@@@@@@@@####$$$$%%&&++&&%%$$$$#####@@@@@@@@@@@@@@@@@+",
"+@@@@@@@@@@@@@@@@@@####$$$$$%&&++&%%%$$$$####@@@@@@@@@@@@@@@@@@+",
"+@@@@@@@@@@@@@@@@@#####$$$$%%&&++&&%%$$$$####@@@@@@@@@@@@@@@@@@+",
"+@@@@@@@@@@@@@@@@@@#####$$$%%%&++&&%$$$$$#####@@@@@@@@@@@@@@@@@+",
"+@@@@@@@@@@@@@@@@@@####$$$$%%&&++&%%%$$$$####@@@@@@@@@@@@@@@@@@+",
"+@@@@@@@@@@@@@@@@@#####$$$$%%&&++&&%$$$$$####@@@@@@@@@@@@@@@@@@+",
"+@@@@@@@@@@@@@@@@@@####$$&*=%&&++&%%$$$$$####@@@@@@@@@@@@@@@@@@+",
"+@@@@@@@@@@@@@@@@@####$$-;>,*&&++&%%$$$$$#####@@@@@@@@@@@@@@@@@+",
"+@@@@@@@@@@@@@@@@@@####$')*%&&&++&&%%$$$$$###@@@@@@@@@@@@@@@@@@+",
"+@@@@@@@@@@@@@@@@@@####$=!;,-%&++&%%$$$$$####@@@@@@@@@@@@@@@@@@+",
"+@@@@@@@@@@@@@@@@@@###$$~%&){&&++&&%$$$$$#####@@@@@@@@@@@@@@@@@+",
"+@@@@@@@@@@@@@@@@@#####$];,,*&&++&&%$$$$$####@@@@@@@@@@@@@@@@@@+",
"+@@@@@@@@@@@@@@@@@@###$$$%&%%&&++&&%%$$$$#####@@@@@@@@@@@@@@@@@+",
"+@@@@@@@@@@@@@@@@@@###$$$$$%%&&++&%%$$$$#####@@@@@@@@@@@@@@@@@@+",
"+@@@@@@@@@@@@@@@@@@###$$$$$%%&&++&%%%$$$$####@@@@@@@@@@@@@@@@@@+",
"+@@@@@@@@@@@@@@@@@######$$$%%&&++&&%%$$$$$###@@@@@@@@@@@@@@@@@@+",
"+@@@@@@@@@@@@@@@@@@####$$$$%%&&++&&%$$$$#$###@@@@@@@@@@@@@@@@@@+",
"+@@@@@@@@@@@@@@@@@@####$$$$%%%&++&%%$$$$$####@@@@@@@@@@@@@@@@@@+",
"+@@@@@@@@@@@@@@@@@######$$$$%%&++&%%%$$$$$####@@@@@@@@@@@@@@@@@+",
"+@@@@@@@@@@@@@@@@@@####$$$$%%&&++&&%%$$$$#####@@@@@@@@@@@@@@@@@+",
"+@@@@@@@@@@@@@@@@@#####$$$$%%&&++&&%%$$$$####@@@@@@@@@@@@@@@@@@+",
"+@@@@@@@@@@@@@@@@@####$$$$$%%&&++&%%$$$$$####@@@@@@@@@@@@@@@@@@+",
"+@@@@@@@@@@@@@@@@@@####$$$$%%%&++&&%%$$$$####@@@@@@@@@@@@@@@@@@+",
"+@@@@@@@@@@@@@@@@@@####$$$$$%%&++&&%%$$$$####@@@@@@@@@@@@@@@@@@+",
"+@@@@@@@@@@@@@@@@@@####$$$$$%&&++&%%$$$$$$###@@@@@@@@@@@@@@@@@@+",
"+@@@@@@@@@@@@@@@@@@####$$$$%%%&++&%%$$$$$$###@@@@@@@@@@@@@@@@@@+",
"+@@@@@@@@@@@@@@@@@@#####$$$$%%&++&&%%$$$$####@@@@@@@@@@@@@@@@@@+",
"+@@@@@@@@@@@@@@@@@#####$$$$%%%&++&&%%$$$$#####@@@@@@@@@@@@@@@@@+",
"+@@@@@@@@@@@@@@@@@####$$$$$%%&&++&&%%$$$######@@@@@@@@@@@@@@@@@+",
"+@@@@@@@@@@@@@@@@@@#####$$$%%&&++&&%$$$$$#####@@@@@@@@@@@@@@@@@+",
"+@@@@@@@@@@@@@@@@@@####$$$$$%&&++&%%$$$$$$####@@@@@@@@@@@@@@@@@+",
"+@@@@@@@@@@@@@@@@@@####$$$$%%&&++&&%%$$$$#####@@@@@@@@@@@@@@@@@+",
"+@@@@@@@@@@@@@@@@@#####$$$$$%&&++&%%%$$$$#####@@@@@@@@@@@@@@@@@+",
"+@@@@@@@@@@@@@@@@@@####$$$$%%&&++&&%%$$$$####@@@@@@@@@@@@@@@@@@+",
"+@@@@@@@@@@@@@@@@@@####$$$$$%%&++&&%%$$$$####@@@@@@@@@@@@@@@@@@+",
"+@@@@@@@@@@@@@@@@@@#####$$$$%&&++&&%$$$$$####@@@@@@@@@@@@@@@@@@+",
"+@@@@@@@@@@@@@@@@@####$$$$$$%&&++&&%%$$$$####@@@@@@@@@@@@@@@@@@+",
"+@@@@@@@@@@@@@@@@@####$#$$$%%%&++&%%$$$$$####@@@@@@@@@@@@@@@@@@+",
"+@@@@@@@@@@@@@@@@@@####$$$$$%&&++&&%%$$$$####@@@@@@@@@@@@@@@@@@+",
"                                                                ",
"................................................................",
"                                                                "};
